{"accessors":[{"bufferView":0,"byteOffset":0,"componentType":5126,"count":36,"max":[4.454905,0.5,5.17305],"min":[-4.454905,-0.5,-5.17305],"normalized":false,"type":"VEC3"},{"bufferView":1,"byteOffset":0,"componentType":5126,"count":36,"max":[0,0,0.000076,-1],"min":[-1,-1,-1,-1],"normalized":false,"type":"VEC4"},{"bufferView":2,"byteOffset":0,"componentType":5126,"count":36,"max":[1,1,1],"min":[-1,-1,-1],"normalized":false,"type":"VEC3"},{"bufferView":3,"byteOffset":0,"componentType":5126,"count":36,"max":[1,1],"min":[0,0],"normalized":false,"type":"VEC2"},{"bufferView":4,"byteOffset":0,"componentType":5125,"count":36,"max":[35],"min":[0],"normalized":false,"type":"SCALAR"}],"asset":{"generator":"Godot Engine v4.0.stable.official@92bee43adba8d2401ef40e2480e53087bcb1eaf1","version":"2.0"},"bufferViews":[{"buffer":0,"byteLength":432,"byteOffset":0},{"buffer":0,"byteLength":576,"byteOffset":432},{"buffer":0,"byteLength":432,"byteOffset":1008},{"buffer":0,"byteLength":288,"byteOffset":1440},{"buffer":0,"byteLength":144,"byteOffset":1728}],"buffers":[{"byteLength":1872,"uri":"level0.bin"}],"images":[{"uri":"textures%2F_albedo.png"}],"materials":[{"pbrMetallicRoughness":{"baseColorFactor":[0.99999988079071,0.99999988079071,0.99999988079071,1],"baseColorTexture":{"index":0},"metallicFactor":0,"roughnessFactor":1}}],"meshes":[{"extras":{"targetNames":[]},"primitives":[{"attributes":{"NORMAL":2,"POSITION":0,"TANGENT":1,"TEXCOORD_0":3},"indices":4,"material":0,"mode":4}]}],"nodes":[{"children":[1],"extensions":{},"mesh":0,"name":"CSGCombiner3D2"},{"extensions":{},"name":"CSGBox3D"}],"samplers":[{"magFilter":9729,"minFilter":9987,"wrapS":10497,"wrapT":10497}],"scene":0,"scenes":[{"nodes":[0]}],"textures":[{"sampler":0,"source":0}]}