{"accessors":[{"bufferView":0,"byteOffset":0,"componentType":5126,"count":2253,"max":[4.455,44.628399,295.967865],"min":[-4.455,-33.994225,-85.208199],"normalized":false,"type":"VEC3"},{"bufferView":1,"byteOffset":0,"componentType":5126,"count":2253,"max":[1,0.982597,0.116593,1],"min":[-1,-1,-1,-1],"normalized":false,"type":"VEC4"},{"bufferView":2,"byteOffset":0,"componentType":5126,"count":2253,"max":[1,1,1],"min":[-1,-1,-1],"normalized":false,"type":"VEC3"},{"bufferView":3,"byteOffset":0,"componentType":5126,"count":2253,"max":[1,1],"min":[0,0],"normalized":false,"type":"VEC2"},{"bufferView":4,"byteOffset":0,"componentType":5125,"count":2253,"max":[2252],"min":[0],"normalized":false,"type":"SCALAR"},{"bufferView":5,"byteOffset":0,"componentType":5126,"count":255,"max":[4.455,36.237671,314.151337],"min":[-4.455,-18.81562,174.797668],"normalized":false,"type":"VEC3"},{"bufferView":6,"byteOffset":0,"componentType":5126,"count":255,"max":[0.000093,1,-0.000015,-1],"min":[-1,-0.999974,-1,-1],"normalized":false,"type":"VEC4"},{"bufferView":7,"byteOffset":0,"componentType":5126,"count":255,"max":[1,0.999944,1],"min":[-1,-1,-1],"normalized":false,"type":"VEC3"},{"bufferView":8,"byteOffset":0,"componentType":5126,"count":255,"max":[1,1],"min":[0,0],"normalized":false,"type":"VEC2"},{"bufferView":9,"byteOffset":0,"componentType":5125,"count":255,"max":[254],"min":[0],"normalized":false,"type":"SCALAR"}],"asset":{"generator":"Godot Engine v4.0.stable.official@92bee43adba8d2401ef40e2480e53087bcb1eaf1","version":"2.0"},"bufferViews":[{"buffer":0,"byteLength":27036,"byteOffset":0},{"buffer":0,"byteLength":36048,"byteOffset":27036},{"buffer":0,"byteLength":27036,"byteOffset":63084},{"buffer":0,"byteLength":18024,"byteOffset":90120},{"buffer":0,"byteLength":9012,"byteOffset":108144},{"buffer":0,"byteLength":3060,"byteOffset":117156},{"buffer":0,"byteLength":4080,"byteOffset":120216},{"buffer":0,"byteLength":3060,"byteOffset":124296},{"buffer":0,"byteLength":2040,"byteOffset":127356},{"buffer":0,"byteLength":1020,"byteOffset":129396}],"buffers":[{"byteLength":130416,"uri":"LEVEL20.bin"}],"images":[{"uri":"textures%2F_albedo.png"}],"materials":[{"pbrMetallicRoughness":{"baseColorFactor":[0.99999988079071,0.99999988079071,0.99999988079071,1],"baseColorTexture":{"index":0},"metallicFactor":0,"roughnessFactor":1}},{"pbrMetallicRoughness":{"baseColorFactor":[0.99999988079071,0.99999988079071,0.99999988079071,1],"metallicFactor":0,"roughnessFactor":1}}],"meshes":[{"extras":{"targetNames":[]},"primitives":[{"attributes":{"NORMAL":2,"POSITION":0,"TANGENT":1,"TEXCOORD_0":3},"indices":4,"material":0,"mode":4},{"attributes":{"NORMAL":7,"POSITION":5,"TANGENT":6,"TEXCOORD_0":8},"indices":9,"material":1,"mode":4}]}],"nodes":[{"children":[1,4,15,16,17,18],"extensions":{},"mesh":0,"name":"CSGCombiner3D2"},{"children":[2,3],"extensions":{},"name":"CSGBox3D2","translation":[0,28.8875999450684,22.4768009185791]},{"extensions":{},"name":"CSGBox3D4","translation":[0,-8.55280017852783,36.9009017944336]},{"extensions":{},"name":"CSGBox3D5","translation":[0,-15.831600189209,104.649002075195]},{"children":[5],"extensions":{},"name":"CSGBox3D","translation":[0,0,10.9770002365112]},{"children":[6],"extensions":{},"name":"CSGBox3D3","translation":[0,5.59158992767334,25.5419006347656]},{"children":[7],"extensions":{},"name":"CSGBox3D42","translation":[0,7.82051992416382,7.83872985839844]},{"children":[8],"extensions":{},"name":"CSGBox3D32","translation":[0,-19.0617008209229,7.72132015228271]},{"children":[9],"extensions":{},"name":"CSGBox3D43","translation":[0,-18.6737995147705,9.42765045166016]},{"children":[10],"extensions":{},"name":"CSGBox3D44","translation":[0,7.39816999435425,11.2362003326416]},{"children":[11],"extensions":{},"name":"CSGBox3D33","translation":[0,16.925199508667,11.1176996231079]},{"children":[12],"extensions":{},"name":"CSGBox3D52","translation":[0,2.94103002548218,23.0955009460449]},{"children":[13],"extensions":{},"name":"CSGBox3D45","translation":[0,4.69610977172852,4.97104978561401]},{"children":[14],"extensions":{},"name":"CSGBox3D46","translation":[0,-18.1893997192383,6.77294015884399]},{"extensions":{},"name":"CSGBox3D7","translation":[0,-17.6854000091553,87.2678985595703]},{"extensions":{},"name":"CSGBox3D34","translation":[0,2.08247995376587,100.081001281738]},{"extensions":{},"name":"CSGBox3D47","rotation":[0.00527957500889897,0,0,0.999986052513123],"translation":[0,0,190.740997314453]},{"extensions":{},"name":"CSGBox3D6","rotation":[0.00527957500889897,0,0,0.999986052513123],"translation":[0,35.5694007873535,298.2080078125]},{"extensions":{},"name":"CSGBox3D53","rotation":[0.70710676908493,0,0,0.70710676908493],"translation":[0,8.54187965393066,292.523986816406]}],"samplers":[{"magFilter":9729,"minFilter":9987,"wrapS":10497,"wrapT":10497}],"scene":0,"scenes":[{"nodes":[0]}],"textures":[{"sampler":0,"source":0}]}